<svg width="27" height="23" viewBox="0 0 27 23" fill="none" xmlns="http://www.w3.org/2000/svg">
<path d="M2.49433 10.03C9.34605 7.04553 13.9139 5.07777 16.1978 4.12712C22.7264 1.41251 24.0813 0.941039 24.9662 0.925066C25.1608 0.921945 25.5941 0.970046 25.8768 1.19862C26.1118 1.39139 26.1779 1.6521 26.211 1.83514C26.2403 2.018 26.2807 2.43476 26.2477 2.76009C25.8952 6.47602 24.364 15.4934 23.5856 19.6555C23.2588 21.4165 22.6089 22.007 21.981 22.0646C20.615 22.1902 19.5796 21.1628 18.2577 20.2966C16.1904 18.9406 15.0228 18.0968 13.0143 16.7738C10.6936 15.2448 12.1991 14.4043 13.521 13.0311C13.8661 12.6716 19.8807 7.20232 19.9945 6.70625C20.0092 6.64419 20.0239 6.41287 19.8843 6.29096C19.7485 6.16869 19.5465 6.21055 19.3996 6.24359C19.1904 6.29059 15.8893 8.47463 9.48558 12.7953C8.54926 13.4394 7.70105 13.7533 6.9373 13.7368C6.10012 13.7188 4.48449 13.2624 3.28379 12.8724C1.81504 12.394 0.64371 12.141 0.746522 11.3284C0.797928 10.9054 1.38176 10.4725 2.49433 10.03Z" fill="white"/>
</svg>
